<svg width="12" height="15" fill="none" xmlns="http://www.w3.org/2000/svg"><mask id="a" fill="#fff"><path fill-rule="evenodd" clip-rule="evenodd" d="M9 4a3 3 0 1 1-6 0 3 3 0 0 1 6 0Zm1 0a4 4 0 1 1-8 0 4 4 0 0 1 8 0Zm-9 9a3 3 0 0 1 3-3h4a3 3 0 0 1 3 3v1H1v-1Zm-1 0a4 4 0 0 1 4-4h4a4 4 0 0 1 4 4v2H0v-2Z"/></mask><path fill-rule="evenodd" clip-rule="evenodd" d="M9 4a3 3 0 1 1-6 0 3 3 0 0 1 6 0Zm1 0a4 4 0 1 1-8 0 4 4 0 0 1 8 0Zm-9 9a3 3 0 0 1 3-3h4a3 3 0 0 1 3 3v1H1v-1Zm-1 0a4 4 0 0 1 4-4h4a4 4 0 0 1 4 4v2H0v-2Z" fill="#1C2A39"/><path d="M11 14v1h1v-1h-1ZM1 14H0v1h1v-1Zm11 1v1h1v-1h-1ZM0 15h-1v1h1v-1Zm6-7a4 4 0 0 0 4-4H8a2 2 0 0 1-2 2v2ZM2 4a4 4 0 0 0 4 4V6a2 2 0 0 1-2-2H2Zm4-4a4 4 0 0 0-4 4h2a2 2 0 0 1 2-2V0Zm4 4a4 4 0 0 0-4-4v2a2 2 0 0 1 2 2h2ZM6 9a5 5 0 0 0 5-5H9a3 3 0 0 1-3 3v2ZM1 4a5 5 0 0 0 5 5V7a3 3 0 0 1-3-3H1Zm5-5a5 5 0 0 0-5 5h2a3 3 0 0 1 3-3v-2Zm5 5a5 5 0 0 0-5-5v2a3 3 0 0 1 3 3h2ZM4 9a4 4 0 0 0-4 4h2a2 2 0 0 1 2-2V9Zm4 0H4v2h4V9Zm4 4a4 4 0 0 0-4-4v2a2 2 0 0 1 2 2h2Zm0 1v-1h-2v1h2ZM1 15h10v-2H1v2Zm-1-2v1h2v-1H0Zm4-5a5 5 0 0 0-5 5h2a3 3 0 0 1 3-3V8Zm4 0H4v2h4V8Zm5 5a5 5 0 0 0-5-5v2a3 3 0 0 1 3 3h2Zm0 2v-2h-2v2h2ZM0 16h12v-2H0v2Zm-1-3v2h2v-2h-2Z" fill="#1C2A39" mask="url(#a)"/></svg>