<svg width="14" height="17" fill="none" xmlns="http://www.w3.org/2000/svg"><mask id="a" fill="#fff"><path fill-rule="evenodd" clip-rule="evenodd" d="M6 1h2a2 2 0 0 1 2 2v2H4V3a2 2 0 0 1 2-2ZM3 5V3a3 3 0 0 1 3-3h2a3 3 0 0 1 3 3v2h.216a2 2 0 0 1 1.994 1.845l.622 8A2 2 0 0 1 11.838 17H2.162a2 2 0 0 1-1.994-2.155l.622-8A2 2 0 0 1 2.784 5H3Zm8 1H2.784a1 1 0 0 0-.997.922l-.622 8A1 1 0 0 0 2.162 16h9.676a1 1 0 0 0 .997-1.078l-.622-8A1 1 0 0 0 11.216 6H11Z"/></mask><path fill-rule="evenodd" clip-rule="evenodd" d="M6 1h2a2 2 0 0 1 2 2v2H4V3a2 2 0 0 1 2-2ZM3 5V3a3 3 0 0 1 3-3h2a3 3 0 0 1 3 3v2h.216a2 2 0 0 1 1.994 1.845l.622 8A2 2 0 0 1 11.838 17H2.162a2 2 0 0 1-1.994-2.155l.622-8A2 2 0 0 1 2.784 5H3Zm8 1H2.784a1 1 0 0 0-.997.922l-.622 8A1 1 0 0 0 2.162 16h9.676a1 1 0 0 0 .997-1.078l-.622-8A1 1 0 0 0 11.216 6H11Z" fill="#1C2A39"/><path d="M10 5v1h1V5h-1ZM4 5H3v1h1V5ZM3 5v1h1V5H3Zm8 0h-1v1h1V5Zm2.21 1.845.997-.078-.997.078Zm.622 8-.997.077.997-.077Zm-13.664 0-.997-.078.997.078Zm.622-8-.997-.078.997.078Zm.997.077L.79 6.845l.997.077Zm-.622 8-.997-.077.997.077Zm11.67 0-.997.078.997-.078Zm-.622-8L11.216 7l.997-.078ZM8 0H6v2h2V0Zm3 3a3 3 0 0 0-3-3v2a1 1 0 0 1 1 1h2Zm0 2V3H9v2h2Zm-1-1H4v2h6V4ZM3 3v2h2V3H3Zm3-3a3 3 0 0 0-3 3h2a1 1 0 0 1 1-1V0ZM2 3v2h2V3H2Zm4-4a4 4 0 0 0-4 4h2a2 2 0 0 1 2-2v-2Zm2 0H6v2h2v-2Zm4 4a4 4 0 0 0-4-4v2a2 2 0 0 1 2 2h2Zm0 2V3h-2v2h2Zm-.784-1H11v2h.216V4Zm2.991 2.767A3 3 0 0 0 11.217 4v2a1 1 0 0 1 .996.922l1.994-.155Zm.622 8-.622-8-1.994.155.622 8 1.994-.155ZM11.84 18a3 3 0 0 0 2.99-3.233l-1.994.155A1 1 0 0 1 11.838 16v2Zm-9.677 0h9.676v-2H2.162v2ZM-.83 14.767A3 3 0 0 0 2.16 18v-2a1 1 0 0 1-.996-1.078l-1.994-.155Zm.622-8-.622 8 1.994.155.622-8-1.994-.155ZM2.783 4a3 3 0 0 0-2.99 2.767l1.994.155A1 1 0 0 1 2.784 6V4ZM3 4h-.216v2H3V4Zm8 1H3v2h8V5ZM3 5h-.216v2H3V5Zm-.216 0A2 2 0 0 0 .79 6.845L2.784 7V5ZM.79 6.845l-.622 8L2.162 15l.622-8L.79 6.845Zm-.622 8A2 2 0 0 0 2.162 17v-2l-1.994-.155ZM2.162 17h9.676v-2H2.162v2Zm9.676 0a2 2 0 0 0 1.994-2.155L11.838 15v2Zm1.994-2.155-.622-8L11.216 7l.622 8 1.994-.155Zm-.622-8A2 2 0 0 0 11.216 5v2l1.994-.155ZM11.216 5H11v2h.216V5Z" fill="#1C2A39" mask="url(#a)"/></svg>