<svg width="1120" height="702" fill="none" xmlns="http://www.w3.org/2000/svg"><path d="M0 0h1120v702H0V0Z" fill="#FFE0E2"/><path fill-rule="evenodd" clip-rule="evenodd" d="M686.796 24.85 682.688 22 673 35.97l4.109 2.849 9.687-13.97ZM155.121 39l4.961.624-2.121 16.867-4.961-.624L155.121 39ZM73.722 61l2.5 4.33-14.722 8.5L59 69.5 73.722 61Zm201.966 95 4.108 2.849-9.687 13.97L266 169.97l9.688-13.97Zm-53.606-54.376-4.961-.624L215 117.867l4.961.624 2.121-16.867ZM47.562 116 44 119.508l11.928 12.113 3.563-3.508L47.563 116Zm800.16 52 2.5 4.33-14.722 8.5-2.5-4.33 14.722-8.5ZM1057.22 59.33l-2.5-4.33-14.72 8.5 2.5 4.33 14.72-8.5ZM999.121 220l4.959.624-2.12 16.867-4.96-.624L999.121 220Zm51.959 212.624-4.96-.624-2.12 16.867 4.96.624 2.12-16.867ZM865 299.508l3.563-3.508 11.928 12.113-3.563 3.508L865 299.508ZM719.563 312 716 315.508l11.928 12.113 3.563-3.508L719.563 312Zm-500.166-82.463L217 225.149 231.92 217l2.396 4.388-14.919 8.149Zm-82.013 8.691 4.945.741 2.52-16.812-4.944-.741-2.521 16.812Zm-88.44-34.675L44 202.812 46.52 186l4.945.741-2.52 16.812ZM507 395.812l4.945.741 2.52-16.812-4.945-.741-2.52 16.812Zm61.308 167.192-2.572 4.288-14.579-8.743 2.572-4.288 14.579 8.743Zm-249.67-340.189 3.644-3.423L310.645 207 307 210.423l11.638 12.392ZM422.303 51l4.109 2.85-9.688 13.969-4.108-2.85L422.303 51Zm-14.906 171.537L405 218.149 419.92 210l2.396 4.388-14.919 8.149ZM273 61.149l2.397 4.388 14.919-8.149L287.92 53 273 61.149Zm59.945 58.82-4.945-.741 2.52-16.812 4.945.741-2.52 16.812Zm170.693-45.154 3.644-3.423L495.645 59 492 62.423l11.638 12.392ZM146.093 440.542l-5.093-.719L143.516 423l5.093.719-2.516 16.823Zm-72.864-74.234-4.222-2.859L59 377.394l4.221 2.86 10.008-13.946ZM184 286.541l4.896-1.541 5.391 16.173-4.896 1.54L184 286.541ZM560.896 303 556 304.541l5.391 16.172 4.896-1.54L560.896 303ZM917.397 73.537 915 69.15 929.92 61l2.396 4.388-14.919 8.15ZM974.15 143.3l4.989-.338-1.15-16.961-4.989.338 1.15 16.961ZM826.329 71.97l-4.945-.741 2.521-16.812 4.944.741-2.52 16.812Zm-84.391 101.132 2.436-4.367-14.847-8.281-2.436 4.366 14.847 8.282Zm264.002 372.452-4.94-.741 2.52-16.812 4.94.741-2.52 16.812ZM903.896 210 899 211.541l5.391 16.172 4.896-1.54L903.896 210ZM794 357.541l4.896-1.541 5.391 16.173-4.896 1.54L794 357.541ZM298.788 486 297 490.688l16.408 5.906 1.787-4.689L298.788 486Zm-.563-166.304 3.691-3.4 12.054 12.601-3.69 3.4-12.055-12.601Zm27.875 12.936-1.656-4.737-16.349 6.067 1.657 4.736 16.348-6.066Z" fill="#FFEFF0"/><path fill-rule="evenodd" clip-rule="evenodd" d="M761.615 79.96c1.132-5.066 6.717-7.73 11.367-5.42l20.458 10.162a8 8 0 0 1 4.193 9.14l-4.964 19.481c-1.132 4.442-5.757 7.026-10.133 5.662l-20.677-6.446a8.001 8.001 0 0 1-5.427-9.382l5.183-23.196ZM88.827 145.02c-1.946 4.82 1.149 10.186 6.294 10.915l52.907 7.505a8 8 0 0 0 8.965-6.338l7.872-39a8 8 0 0 0-6.516-9.472l-45.011-7.565a7.999 7.999 0 0 0-8.744 4.895l-15.767 39.06Zm889.167 129.948c-1.831 4.86 1.382 10.15 6.539 10.765l64.437 7.686a8.004 8.004 0 0 0 8.78-6.295l12.74-60.48c.95-4.502-2.09-8.874-6.64-9.56l-54.2-8.168a7.997 7.997 0 0 0-8.68 5.089l-22.976 60.963ZM355.628 402.366c-.949 5.104-6.435 7.966-11.164 5.824l-65.391-29.607a8 8 0 0 1-4.519-8.984l13.453-62.007c.972-4.48 5.502-7.229 9.924-6.022l65.651 17.91a8 8 0 0 1 5.759 9.181l-13.713 73.705ZM114.682 675.255c2.096 4.865 8.255 6.386 12.375 3.057l36.788-29.723a8 8 0 0 0 1.976-10.09l-37.815-68.482c-2.331-4.222-7.839-5.437-11.73-2.587l-31.382 22.984a8 8 0 0 0-2.62 9.619l32.408 75.222Zm709.921-176.116c-4.256 2.98-10.178 1.176-12.051-3.669l-7.377-19.093a7.999 7.999 0 0 1 3.082-9.578l13.412-8.774c3.858-2.524 9.046-1.273 11.329 2.732l9.635 16.896a8 8 0 0 1-2.362 10.516l-15.668 10.97Zm219.427 173.208c5.3.174 9.29-4.749 8.04-9.892l-11.45-46.88c-1.04-4.293-5.37-6.923-9.66-5.875l-18.9 4.613c-4.24 1.035-6.87 5.277-5.9 9.534l9.39 41.58a7.997 7.997 0 0 0 7.54 6.234l20.94.686ZM98.56 251.804c-.107-5.191-5.054-8.906-10.069-7.562l-22.958 6.153a8 8 0 0 0-5.8 9.156l3.866 21.31c.818 4.51 5.251 7.412 9.712 6.357l19.563-4.625a8 8 0 0 0 6.158-7.95l-.472-22.839Z" fill="#FFE6E7"/><g clip-path="url(#a)"><path d="m58.91 268.449 12.785 48.344 30.148-8.865-12.786-48.344-30.148 8.865Z" fill="#362E2D"/><path d="m56.2 271.759 2.6-3.058 28.7-5.166 12.8 43.548-10.8 25.623-20.2-13.919-13.1-47.028Z" fill="#fff"/><path d="m77.8 290.423 12.8 44.286-21.7-14.657-12.7-48.293 21.6 18.664Z" fill="#4E3734"/><path d="m58.8 269.545 26.8-1.055 13 42.6 1.7-4.007-12.8-43.548-27.9 4.955-.8 1.055Z" fill="#F7F7F7"/><path d="M178.9 340.087c16.845 0 30.5-14.399 30.5-32.161 0-17.761-13.655-32.16-30.5-32.16s-30.5 14.399-30.5 32.16c0 17.762 13.655 32.161 30.5 32.161Z" fill="#8C503E"/><path d="M318.2 612.342s3.8 10.018 5.5 15.501c1.7 5.483 4.7 12.337 7.2 12.547 2.5.211 3-10.017 1.4-25.622-1.6-15.501-.4-17.715-8.5-17.609-3.6 0-5.6-.317-5.6-.317v15.5Zm-224 54.198s-10.9 1.793-16.6 4.218c-5.7 2.425-10.1 4.851-10.1 7.803 0 2.32 10.4 1.582 26.6 1.582 16.6.105 21.3.527 18.4-8.33-1-3.058-3.6-5.589-3.6-5.589l-14.7.316Z" fill="#FF6ED9"/><path d="M209.4 307.926c0-17.82-13.7-32.16-30.5-32.16-4.6 0-9 1.054-12.9 3.058l-.8.422c-1 2.003-1.6 4.217-1.6 6.643 0 7.697 5.9 13.918 13.2 13.918.6 0 1.2-.105 1.9-.105-.8 1.054-1.2 2.425-1.2 3.901 0 3.269 2.4 6.01 5.4 6.432-.3.844-.4 1.687-.4 2.531 0 4.007 3.1 7.275 6.9 7.275h.1c.6 2.953 3 5.062 6 5.062.8 0 1.6-.211 2.3-.422.4 2.214 2.3 3.901 4.5 3.901l1.7-1.687c3.3-5.272 5.4-11.809 5.4-18.769Z" fill="#4E3734"/><path d="M87.8 345.781s.6-10.439-2.3-16.028c-2.9-5.588-9.1-8.646-12-13.497-2.8-4.85-2.7-11.493-5.4-12.126-2.7-.632-7.2 10.756-4.3 16.239 2.8 5.483 6.4 9.068 8.2 14.656 1.8 5.589 4.6 10.545 6.3 12.126 1.8 1.582 9.5-1.37 9.5-1.37Zm170.5 125.372s3.5 9.807 8.4 13.602c4.8 3.796 11.7 3.902 16.2 7.171 4.5 3.163 6.9 9.279 9.6 8.646 2.7-.633 2.3-12.97-2.4-16.66-4.7-3.796-9.4-5.483-13.2-9.806-3.8-4.324-8.3-7.592-10.5-8.33-2.2-.738-8.1 5.377-8.1 5.377Z" fill="#8C503E"/><path d="M142.2 492.769s-19.5 42.916-28 76.236c-11.2 44.075-20 97.641-20 97.641l14.6-.211s17.7-21.721 43.3-65.691c25.8-44.392 37.5-72.546 37.5-72.546s17.3 65.797 28.6 76.131c15.8 14.445 52.7 13.813 64.4 12.969 11.7-.843 35.5-4.85 35.5-4.85v-15.5s-30-5.062-42-10.334c-12-5.272-26.3-9.595-26.3-9.595s-4.8-35.218-8.3-53.882c-3.5-18.664-8.3-40.069-8.3-40.069l-91 9.701Z" fill="#5441AF"/><path d="m189.7 528.093 5.8-12.864s3.3 6.854 2.9 15.605c-.3 8.752-2.1 20.456-2.1 20.456l-6.6-23.197Z" fill="#4F3D9D"/><path d="M52 360.754s5.2.211 13.7 6.01c19 12.97 25.2 41.018 48.2 45.13 19.3 3.48 31.8-2.636 31.8-2.636s-7.5 22.67-9.5 33.004c-2 10.333-1.8 28.997-9.8 37.221-8 8.225-11.7 12.126-11.7 12.126s35 6.643 63.3 1.055c28.3-5.589 43.7-7.592 48.8-7.381 5.2.211 13.2 1.265 13.2 1.265s-3.2-7.592-6.2-15.289c-3-7.698-3.7-15.501-3.7-15.501s19 16.028 22 21.3c3 5.272 3.5 14.024 3.5 14.024s4.3-9.806 7.3-13.18c3-3.375 5.3-7.381 9-10.334 3.7-2.952 5.8-5.272 5.8-5.272s-4 .316-7.5-2.952c-3.5-3.375-23.2-28.787-27.2-32.899-4-4.007-19-21.3-19-21.3s-1.8-55.041-32.7-53.987c-19.5.633-30.8 5.8-43.2 12.864-12.3 7.065-23.2 14.763-23.2 14.763s-21-13.392-28.3-29.419c-2.5-5.378-3.6-9.385-3.6-9.385s-7.7 1.476-18.3 6.96c-11.3 6.01-22.7 13.813-22.7 13.813Z" fill="#FF353A"/><path d="M145.7 409.258s10.9-.317 21.2-3.585c10.3-3.375 21.4-8.541 24.1-15.184 2.7-6.643 3.9-13.392 3.9-13.392s1.9 11.072-2.5 21.511-18.6 15.5-23.9 17.504c-5.3 2.003-26.7 5.588-26.7 5.588l3.9-12.442Zm79.5 7.697s1.6 18.558 2.3 24.041c.7 5.483 2.8 14.973 2.8 14.973l5.2 4.429s-3.7-11.704-5.1-20.034c-1.6-8.33-5.2-23.409-5.2-23.409Z" fill="#E2303D"/><path d="M186.4 485.494c-3.5 0-6.3-2.953-6.3-6.643 0-3.691 2.8-6.643 6.3-6.643s6.3 2.952 6.3 6.643c0 3.69-2.8 6.643-6.3 6.643Zm0-12.232c-2.9 0-5.3 2.531-5.3 5.589 0 3.058 2.4 5.588 5.3 5.588s5.3-2.53 5.3-5.588c0-3.058-2.3-5.589-5.3-5.589Zm27.6-94.161c2 0 3.8-1.055 5-2.636-.1-.422-.3-.844-.4-1.266-.9 1.688-2.6 2.742-4.5 2.742-2.9 0-5.3-2.531-5.3-5.589 0-3.057 2.4-5.588 5.3-5.588.3 0 .6 0 .9.105-.2-.421-.4-.738-.6-1.159h-.3c-3.5 0-6.3 2.952-6.3 6.642 0 3.691 2.7 6.749 6.2 6.749Zm-82.4 109.345c5 0 9.1-4.323 9.1-9.595 0-5.273-4-9.49-9-9.596-.1.317-.2.738-.3 1.055h.2c4.5 0 8.1 3.796 8.1 8.541 0 4.745-3.6 8.541-8.1 8.541-3.4 0-6.4-2.32-7.6-5.484l-.8.844c1.5 3.374 4.7 5.694 8.4 5.694ZM156 383.951c-4 0-7.2-3.374-7.2-7.592 0-4.217 3.2-7.592 7.2-7.592s7.2 3.375 7.2 7.592c0 4.218-3.3 7.592-7.2 7.592Zm0-14.024c-3.4 0-6.2 2.953-6.2 6.538 0 3.585 2.8 6.537 6.2 6.537 3.4 0 6.2-2.952 6.2-6.537s-2.8-6.538-6.2-6.538Zm-57.2 0c-2.5 0-4.6-2.214-4.6-4.85 0-2.636 2.1-4.851 4.6-4.851 2.5 0 4.6 2.215 4.6 4.851s-2.1 4.85-4.6 4.85Zm0-8.646c-2 0-3.6 1.687-3.6 3.796s1.6 3.796 3.6 3.796 3.6-1.687 3.6-3.796-1.6-3.796-3.6-3.796Zm148.1 69.593a3.505 3.505 0 0 1-3.1 1.898c-2 0-3.6-1.687-3.6-3.796 0-1.476.8-2.742 2-3.374l-.7-.739c-1.4.844-2.3 2.426-2.3 4.218 0 2.636 2.1 4.851 4.6 4.851 1.6 0 3-.844 3.8-2.109-.2-.422-.4-.738-.7-.949Zm-48.5-11.705c-2.5 0-4.6-2.214-4.6-4.85 0-2.636 2.1-4.85 4.6-4.85 2.5 0 4.6 2.214 4.6 4.85 0 2.636-2 4.85-4.6 4.85Zm0-8.541c-2 0-3.6 1.688-3.6 3.796 0 2.109 1.6 3.796 3.6 3.796s3.6-1.687 3.6-3.796c0-2.108-1.6-3.796-3.6-3.796ZM66.2 362.335c-1.6 0-3 1.055-3.7 2.426.3.21.6.316.9.527.5-1.16 1.6-1.898 2.8-1.898 1.7 0 3.1 1.476 3.1 3.269 0 .843-.3 1.687-.9 2.214.3.211.5.422.8.632.7-.738 1.1-1.792 1.1-2.846 0-2.426-1.8-4.324-4.1-4.324Zm84 80.032c-3 0-5.4-2.531-5.4-5.694s2.4-5.694 5.4-5.694c3 0 5.4 2.531 5.4 5.694s-2.4 5.694-5.4 5.694Zm0-10.439c-2.4 0-4.4 2.109-4.4 4.64 0 2.53 2 4.639 4.4 4.639 2.4 0 4.4-2.109 4.4-4.639 0-2.531-1.9-4.64-4.4-4.64Zm98.7 32.793c-2.2 0-4.1 1.371-5 3.374.3.211.5.528.8.738.6-1.792 2.2-3.163 4.2-3.163 2.4 0 4.4 2.109 4.4 4.64 0 2.003-1.2 3.69-2.9 4.323.3.316.5.527.7.843 1.9-.949 3.2-2.847 3.2-5.166 0-3.058-2.4-5.589-5.4-5.589Zm-115.4-61.474c-2.3 0-4.1-1.898-4.1-4.323 0-2.425 1.8-4.323 4.1-4.323s4.1 1.898 4.1 4.323c0 2.425-1.8 4.323-4.1 4.323Zm0-7.591c-1.7 0-3.1 1.476-3.1 3.268 0 1.793 1.4 3.269 3.1 3.269 1.7 0 3.1-1.476 3.1-3.269 0-1.792-1.4-3.268-3.1-3.268Zm80.5 60.419c-3.2 0-5.7-2.742-5.7-6.01 0-3.269 2.6-6.011 5.7-6.011s5.7 2.742 5.7 6.011c0 3.268-2.5 6.01-5.7 6.01Zm0-11.072c-2.6 0-4.7 2.215-4.7 4.956 0 2.742 2.1 4.956 4.7 4.956s4.7-2.214 4.7-4.956c0-2.741-2.1-4.956-4.7-4.956Zm-40.1 8.225c-1.7 0-3-1.476-3-3.164 0-1.792 1.4-3.163 3-3.163s3 1.476 3 3.163c0 1.688-1.3 3.164-3 3.164Zm0-5.378c-1.1 0-2 .949-2 2.109 0 1.16.9 2.109 2 2.109s2-.949 2-2.109c0-1.16-.9-2.109-2-2.109Zm-72.6-41.334c.8-1.054 1.3-2.425 1.3-4.007 0-3.69-2.8-6.643-6.3-6.643-1.6 0-3.1.633-4.2 1.688.2.316.5.527.7.843.9-.843 2.2-1.476 3.5-1.476 2.9 0 5.3 2.53 5.3 5.588a5.64 5.64 0 0 1-1.1 3.375c.2.21.5.421.8.632Z" fill="#5441AF"/><path d="M78.3 670.126s1.1.632 1.8 1.792c.7 1.16.5 2.953.5 2.953m1.4-6.327s1.1.633 1.8 1.792c.7 1.16.5 2.953.5 2.953m1.3-5.694s1.1.633 1.8 1.792c.7 1.16.5 2.953.5 2.953m1-5.905s1.1.633 1.8 1.793c.7 1.159.5 2.952.5 2.952m231.7-44.075s.5-1.266 1.6-2.004 2.8-.633 2.8-.633m-6.1-1.159s.5-1.266 1.6-2.004 2.8-.633 2.8-.633m-5.4-1.159s.5-1.266 1.6-2.004 2.8-.633 2.8-.633m-5.7-.738s.5-1.265 1.6-2.003c1.1-.738 2.8-.633 2.8-.633" stroke="#5441AF" stroke-miterlimit="10"/><path d="m575.1 342.196 31.8 40.279-14.8 22.987-30.6-38.065 13.6-25.201Z" fill="#4F3D9D"/><path d="m561.5 370.033.1-2.425 13.6-23.831 30.1 38.698-10.3 15.606-10.8-4.534-22.7-23.514Z" fill="#fff"/><path d="m614.5 413.792 1.5-1.476-27.2-34.797-27.3-8.224v.738l7.7 10.439 45.3 33.32Z" fill="#F7F7F7"/><path d="M588.2 378.574 616 414.53l-25.3-4.956-29.2-39.541 26.7 8.541Z" fill="#5441AF"/><path d="M561.5 367.397v2.636l.6.211-.1-3.902-.5 1.055Z" fill="#362E2D"/><path d="M652.6 511.855s-20.8 18.979-28.8 26.888c-8 7.908-12 11.071-14 16.871-2 5.799-6.5 47.449-7.3 60.419-.8 12.97-1.5 40.912-1.5 40.912h13.8s5-18.453 10-29.313c5-10.861 12.3-23.198 15.5-32.688 3.2-9.49 4.8-22.459 4.8-22.459s12.8-1.266 27.8-9.174c15-7.908 21.3-11.915 21.3-11.915s9.3 19.507 17.3 35.851c8 16.344 11 21.405 18 28.47 7 7.064 34.2 19.401 46.7 23.408 17.3 5.483 32.4 7.592 32.4 7.592l2.5-14.024s-20-10.65-30.9-18.558c-10-7.276-18.3-15.5-20.8-22.354-2.5-6.854-6.1-45.974-9.3-63.583-3.2-17.609-9.5-25.095-9.5-25.095l-88 8.752Z" fill="#FF6ED9"/><path d="M694.1 551.396s4.1-2.003 7.6-4.323c3.5-2.32 6.4-4.851 6.4-4.851s-.8 5.8-3.3 10.861c-2.5 5.061-5.5 9.279-5.5 9.279l-5.2-10.966Z" fill="#FF5ED2"/><path d="m657.4 557.828-6-4.956 4.7-6.326 6 4.955-4.7 6.327Zm-4.6-5.061 4.4 3.585 3.4-4.64-4.4-3.585-3.4 4.64Zm-31.6 8.33-4.7-1.266 1.2-4.955 4.7 1.265-1.2 4.956Zm-3.5-2.004 2.8.738.7-2.952-2.8-.738-.7 2.952Zm72.4-22.67-4.7-1.265 1.2-4.956 4.7 1.265-1.2 4.956Zm-3.5-2.003 2.8.738.7-2.953-2.8-.738-.7 2.953Zm-50.8 48.398-6.4-6.116 5.8-6.748 6.4 6.116-5.8 6.748Zm-5-6.116 4.9 4.745 4.5-5.166-4.9-4.745-4.5 5.166Zm90.6-39.119-5.7-5.272 5-6.011 5.7 5.273-5 6.01Zm-4.3-5.272 4.2 3.901 3.7-4.429-4.2-3.901-3.7 4.429ZM614.2 646.19l-4.7-1.476 1.4-4.956 4.7 1.476-1.4 4.956Zm-3.4-2.214 2.7.843.8-2.847-2.7-.843-.8 2.847Zm-2.9-17.399-1.5-7.486 7.1-1.582 1.5 7.487-7.1 1.581Zm-.3-6.748 1.1 5.483 5.2-1.16-1.1-5.483-5.2 1.16Zm-2.4-31.844c0 .422-.1.949-.1 1.371l1.3-.844 2.5 4.007-3.8 2.636-.5-.738c-.1.527-.1 1.16-.2 1.687l.3.527 5.5-3.69-3.5-5.8-1.5.844Zm38-61.896-4.5 2.847-1.6-2.741c-.3.211-.5.422-.8.738l2 3.48 6.2-3.902-2.7-4.639c-.3.211-.5.421-.8.738l2.2 3.479Zm90.3 64.427-4.8-6.222 5.9-5.061 4.8 6.221-5.9 5.062Zm-3.3-6.011 3.5 4.534 4.3-3.69-3.5-4.534-4.3 3.69Zm6.1 29.735-4.3-2.319 2.2-4.534 4.3 2.319-2.2 4.534Zm-3-2.741 2.6 1.371 1.3-2.742-2.6-1.371-1.3 2.742Zm7.7-59.576-4.3-2.32 2.2-4.534 4.3 2.32-2.2 4.534Zm-3-2.847 2.6 1.371 1.3-2.742-2.6-1.37-1.3 2.741Zm23.8 47.661c-.2-.317-.4-.527-.6-.844l-3.6 2.636-3.8-5.799 4.7-3.374c-.1-.317-.2-.738-.2-1.16l-5.8 4.218 4.9 7.486 4.4-3.163Zm36.8 39.541-7.3-.105.1-7.698 7.3.106-.1 7.697Zm-6.3-1.16 5.3.106.1-5.589-5.3-.105-.1 5.588Zm-28.3-2.003-2.2-6.538 6.2-2.319 2.2 6.537-6.2 2.32Zm-.9-5.905 1.5 4.534 4.3-1.582-1.5-4.534-4.3 1.582Zm-57.8-52.511 9.1 3.691-3.1 8.54c0 .106.1.211.1.211.2.317.3.633.5 1.055l3.8-10.439-11.1-4.534c.2.527.4.949.7 1.476ZM624 608.546l5.5 8.014 1.3-1.054c.4-.738.7-1.371 1.1-2.109l-2.2 1.687-4.3-6.327 6-4.534 3 4.323c.2-.316.3-.738.5-1.054l-3.2-4.745-7.7 5.799Z" fill="#5441AF"/><path d="M695.8 367.608c16.845 0 30.5-14.399 30.5-32.161 0-17.761-13.655-32.16-30.5-32.16s-30.5 14.399-30.5 32.16c0 17.762 13.655 32.161 30.5 32.161Z" fill="#DF8E89"/><path d="M601.1 656.84s.3 4.007-1.3 4.85c-3.1 1.898-8.2 4.956-11.1 6.959-4.3 2.953-9.6 8.12-9.1 10.756.5 2.53 9.6.211 22.8-5.167 13.2-5.272 15.7-3.796 13.4-12.021-1-3.69-1.3-5.694-1.3-5.694l-13.4.317Zm207.3-10.228s3.7.527 4.3 2.319c1.1 3.586 3 9.49 4.3 12.865 1.9 5.061 5.7 11.493 8.2 11.493 2.5 0 2.1-9.912-.2-24.568-2.3-14.657-.4-16.977-8.5-16.239-3.6.317-5.5.211-5.5.211l-2.6 13.919Z" fill="#5441AF"/><path d="M603.9 415.69s-2.3-10.123-6.7-14.551c-4.3-4.429-11.1-5.483-15.2-9.174-4.1-3.69-5.8-10.123-8.5-9.912-2.7.211-3.8 12.548.4 16.871 4.2 4.324 8.7 6.643 12 11.494 3.3 4.85 7.4 8.646 9.4 9.595 2 .949 8.6-4.323 8.6-4.323Zm151.8-110.611s-.2-7.17 2.7-12.758c2.9-5.589 11.1-8.963 13.9-13.813 2.8-4.851 7.4-9.701 10.1-10.334 2.7-.633 2.5 8.119-.3 13.602-2.8 5.483-8.9 6.854-10.7 12.548-1.8 5.694-4.6 10.545-6.2 12.126-1.7 1.476-9.5-1.371-9.5-1.371Z" fill="#DF8E89"/><path d="M674.2 299.385s-2 13.181 9.1 20.351 18.9 3.585 18.9 3.585-2.3 12.759 4.9 22.776 10.4 12.021 10.4 12.021 17.9-13.814 13.9-28.681c-2.3-8.436-7.7-10.439-7.7-10.439s.3-8.33-8-14.762-24.3-1.16-31-1.582c-6.7-.422-10.5-3.269-10.5-3.269Z" fill="#FF353A"/><path d="m594.1 422.227 9.5-10.544 7 7.697s9.8 1.898 14.6 3.585c4.8 1.688 8.9 4.535 8.9 4.535s22.9-22.038 35.1-28.47c12.2-6.538 31.2-10.545 46-18.242 14.8-7.697 28-22.46 28-22.46s5-16.66 6.8-23.408c1.8-6.643 4-18.453 4-18.453v-11.704h13v10.755s4 11.283 5.2 30.368c1.2 19.191-3.2 34.586-3.2 34.586s-17.5 17.082-23.7 23.514c-6.2 6.537-14.3 15.5-14.3 15.5s5.7 21.616 10.5 43.759 5.7 42.178 5.7 42.178-21.3 16.871-50.7 17.925c-29.4 1.054-48.8-11.283-48.8-11.283s.3-18.241 1.7-30.367c1.3-12.126 7.3-30.052 7.3-30.052s-5 6.01-9.7 9.701c-4.7 3.691-10 6.643-10 6.643s-14.2-5.061-22.8-16.871c-8.7-11.81-12.7-21.827-12.7-21.827l-7.4-7.065Z" fill="#5441AF"/><path d="M656.7 451.752s5.6-17.188 8.8-26.678c3.2-9.49 4.7-13.075 4.7-13.075s-7.8 7.803-12.2 20.773c-4.4 12.969-7.7 25.939-7.7 25.939l6.4-6.959Z" fill="#4F3D9D"/><path d="m497.2 509.64 2.1-4.007 32.8-20.139L545 509.64l-.6 2.953-34.1 20.878-13.1-23.831Z" fill="#FF5ED2"/><path d="m531.429 488.824-34.207 20.825 13 23.741 34.207-20.825-13-23.741Z" fill="#FF6ED9"/><path d="M363.2 665.17s-5.6-36.168-.3-71.597c5.4-35.956 14.5-73.494 14.5-73.494s28.8 6.327 49.3 2.32c20.5-4.007 45-11.283 45-11.283s4.2 20.351 6.6 44.603c2.3 24.252.8 20.562 4.1 32.477 3.3 11.915 14.9 46.711 19.2 56.939 4.4 10.228 9.1 22.882 9.1 22.882h-15.3s-30.2-33.215-43-53.249c-12.8-20.035-28.6-55.569-28.6-55.569s-17 37.116-23.9 52.511c-6.9 15.5-24.2 56.939-24.2 56.939l-12.5-3.479Z" fill="#4E3734"/><path d="M425.9 385.111c16.127 0 29.2-13.785 29.2-30.789 0-17.005-13.073-30.79-29.2-30.79s-29.2 13.785-29.2 30.79c0 17.004 13.073 30.789 29.2 30.789Z" fill="#DF8E89"/><path d="M450.9 370.349c2.7-4.64 4.3-10.228 4.3-16.027 0-17.082-13.1-30.79-29.2-30.79-6 0-11.5 1.898-16.1 5.167 0 0-3.2 11.071 4.6 18.347 7.9 7.381 16.4 3.163 16.4 3.163s-3.3 10.65 5.3 17.293c7.3 5.694 14.7 2.847 14.7 2.847Z" fill="#4E3734"/><path d="M454.2 341.879c13.807 0 25-11.802 25-26.361 0-14.558-11.193-26.361-25-26.361s-25 11.803-25 26.361c0 14.559 11.193 26.361 25 26.361Z" fill="#4E3734"/><path d="M427.1 541.801s-1 7.17-1.8 10.966c-.8 3.796-1.6 6.537-1.6 6.537l8.6 18.453s.4-15.289-1.2-23.83c-1.6-8.541-4-12.126-4-12.126Z" fill="#362E2D"/><path d="M363.2 665.17s-9.9 1.792-15 2.425c-5.1.633-11.7 2.425-12.3 4.956-.6 2.53 8.2 5.061 22 6.643 13.8 1.476 15 3.163 16.2-5.062.5-3.796 1.4-5.272 1.4-5.272l-12.3-3.69Zm134.7 3.058s-9.1 1.687-13.9 3.796c-4.8 2.108-8.5 4.323-8.5 6.959 0 2.003 8.7 1.371 22.3 1.476 13.9.105 17.8.422 15.4-7.486-.8-2.742-3.1-4.956-3.1-4.956l-12.2.211Z" fill="#FF353A"/><path d="M334.5 449.01s-4.6-6.01-7.8-7.908c-3.2-1.898-8.7-4.007-11.3-5.589-2.6-1.581-7.8-5.272-9.3-2.847-1.5 2.425.8 6.643 4.4 8.858 3.6 2.319 9.2 12.442 14.5 13.18 5.3.738 7.6.949 7.6.949l1.9-6.643Zm177.1 38.276s2.3-.949 5.7 2.636c3.4 3.585 6.6 11.81 7.8 14.868 1.2 3.058 1.5 6.116 2.6 8.224 1.1 2.215 1.4 4.534 0 5.378-1.4.844-5.6-2.531-8.9-6.01-3.3-3.48-7.3-5.8-9.4-10.545-2-4.534-1.8-8.224-1.8-8.224l4-6.327Z" fill="#DF8E89"/><path d="M336 444.16s15.6 2.952 21.1 4.007c5.5 1.054 12 2.319 12 2.319s15.5-20.878 26.1-32.371c10.6-11.388 16.4-19.296 32.1-19.296 20.2 0 43.9 26.993 56.8 42.915 14.9 18.453 29.1 43.021 29.1 43.021l-7.8 12.443s-18.1-14.446-25.3-18.664c-7.2-4.217-17.7-9.806-17.7-9.806s3.8 10.861 6.4 22.987c2.6 12.126 3 19.296 3 19.296s-16.7 11.915-46.1 13.708c-29.4 1.792-48.2-4.745-48.2-4.745s1.6-11.915 3.3-19.718c1.7-7.698 3.6-14.552 3.6-14.552s-10.6.949-24.3-4.112c-17.8-6.537-28.9-21.194-28.9-21.194l4.8-16.238Z" fill="#7B6DCF"/><path d="M384.3 485.81s-2.5 9.49-3.2 12.864c-.7 3.374-1.5 7.592-1.5 7.592s31.4-32.371 38.2-40.28c6.8-7.908 18.9-21.932 18.6-34.269-.3-12.337-2.6-15.078-2.6-15.078s1.4 7.908-1.3 16.027c-3.8 11.283-19.6 25.939-27.1 33.32-6.2 6.222-21.1 19.824-21.1 19.824Zm69.1-50.191s4.1 12.442 5.7 18.241c1.6 5.8 3.2 14.868 3.2 14.868l6 3.269s-4.3-13.181-7-20.456c-2.7-7.276-7.9-15.922-7.9-15.922Z" fill="#6A5AC1"/><path d="m456.8 477.164-.5 4.534 3.2 2.952-4.1.844-1.7 4.112-2.1-3.902-4.3-.316 2.9-3.374-.9-4.323 3.8 1.792 3.7-2.319Zm14.9 33.952s-.1-1.792-.5-5.166l-2 2.53-3.5-.316 1.9 3.163-1.3 3.058c3.6-2.003 5.4-3.269 5.4-3.269Zm-83.3-82.14 1.6 2.952 1.3-3.163 3.2-.738-2.5-2.215.4-3.374-2 1.266c-1.4 1.581-2.8 3.268-4.2 5.061l2.2.211Zm.6 93.845 3.5-.844-3.3-2.847.4-4.429-3.6 2.426-3.9-1.687 1.1 4.323-1.3 1.581c1.8.422 4.2.949 7.1 1.477Zm50.4-14.657 2.4.738 1.9-1.792.1 2.636 2.2 1.37-2.3.949-.6 2.531-1.6-2.003-2.4.211 1.3-2.215-1-2.425Zm-48-51.14 3.1.843 2.5-2.214.2 3.48 2.7 1.687-3 1.265-.7 3.269-2.1-2.636-3.2.316 1.8-2.847-1.3-3.163Zm109.7 8.33-.3.211-3.1-.844 1.3 3.163-1.7 2.847 3.2-.316 2 2.636.7-3.269.6-.21c-.8-1.371-1.7-2.742-2.7-4.218Zm-74.4-1.582 1.7.422 1.3-1.16.1 1.793 1.5.949-1.6.632-.4 1.793-1.1-1.371-1.7.211.9-1.582-.7-1.687ZM368 475.687l1.4-1.054v-1.793l1.4 1.055 1.6-.633-.5 1.793 1.1 1.476h-1.8l-1 1.476-.5-1.792-1.7-.528Zm132.9 13.181 1.7.422 1.3-1.16.1 1.792 1.5.949-1.6.738-.4 1.793-1.1-1.476-1.7.211.9-1.582-.7-1.687Zm-74.2-81.719 1.7.527 1.3-1.265.1 1.898 1.5.949-1.6.632-.4 1.793-1.1-1.371-1.7.106.9-1.582-.7-1.687Zm44.2 32.898 1.7.422 1.3-1.16.1 1.793 1.5.949-1.6.632-.4 1.793-1.1-1.371-1.8.211 1-1.582-.7-1.687Zm-124.3 17.504 2.9.844 2.3-2.109.2 3.163 2.6 1.687-2.8 1.16-.7 3.163-1.9-2.53-3.1.316 1.7-2.742-1.2-2.952Zm62 32.055 5.2 4.218 6.1-2.215-2.1 6.432 3.8 5.483-6.4-.105-3.8 5.589-1.9-6.538-6.1-2.109 5.3-3.901-.1-6.854Zm2.4-67.168 4.1 3.269 4.9-1.687-1.7 5.061 3.1 4.429-5.2-.106-3 4.324-1.5-5.167-4.8-1.582 4.2-3.163-.1-5.378Zm69.1 45.13-2.8-4.534-1.7 5.061-5 1.371 4 3.374-.1 2.636c.7.422 1.4.739 2 1.16l2.1-1.476 4.8 2.004-1.4-5.167 3.3-4.218-5.2-.211Zm-32.2-45.13 5.7-3.268 5.8 3.057-1.2-6.748.8-.844c-2.5-2.214-5.1-4.323-7.7-6.221l-.6 1.476-6.4 1.16 4.7 4.64-1.1 6.748Z" fill="#FF6ED9"/><path d="M885.5 493.507s-3.8 39.015 11 84.672 32.8 88.151 32.8 88.151h15.3s2.5-40.174 2-66.535c-.5-26.361-.8-46.185-.8-46.185s11.9 12.232 18.5 16.66c6.6 4.429 14.4 4.113 23.5 2.215 9.1-1.898 53.9-13.603 53.9-13.603l-1-13.18s-19.5-6.643-31.6-8.963c-12.1-2.32-25.8-6.854-25.8-6.854s-5.9-17.609-12.9-32.265c-7-14.657-9.8-19.402-9.8-19.402l-75.1 15.289Z" fill="#7B6DCF"/><path d="M945.8 553.61s-8.9-7.592-14.9-14.446c-6-6.853-10.6-14.34-10.6-14.34s6.4 15.711 14.6 24.252c7.6 8.014 11 10.017 11 10.017l-.1-5.483Z" fill="#6A5AC1"/><path d="m938.3 578.495-8.2-7.697 10.4.421-2.2 7.276Zm-21.4-22.143 4-6.749.9 7.487-4.9-.738Zm21.2 95.005-2.8-7.487 6.3 3.691-3.5 3.796Zm14-142.455 1.8 8.33-7.5-2.741 5.7-5.589Zm-31.3 119.89 4.8-.633-2 4.639-2.8-4.006Zm51.5-86.464 4.9-.738-2.1 4.745-2.8-4.007Zm19.9 8.646 3.6-6.537 3.6 6.01-7.2.527Zm38.1 3.796 5-4.956 2.8 4.534-7.8.422Zm-106.8-49.453.7-5.167 3.7 3.48-4.4 1.687Zm-14.8 83.301 8.1 8.646-11 2.636 2.9-11.282Zm45.5-52.722-3.8 11.493-7.1-9.279 10.9-2.214Zm55.6 5.694 9.3 9.173-10.4 4.851 1.1-14.024Zm-107.3-22.565 7 9.173 2.5-9.173h-9.5Zm67.9-21.405c-.2-.528-.5-.949-.7-1.477l-3.2-2.53.6 18.136 7.1-5.799a305.75 305.75 0 0 0-3.8-8.33Zm-85.3 9.068c0 2.425.1 5.061.2 8.014l4.7.738-4.5-9.069-.4.317Zm61.5 102.807c0-3.374 0-6.643-.1-9.7v-1.898l-15.4 5.166 15.5 6.432Zm40.5-50.402-11.9 8.541 9.1 5.589c1.1-.211 2.2-.422 3.4-.633.9-.211 2.3-.527 3.9-.843l-4.5-12.654Zm-95.5 1.687h10.6l-9.6-20.877-2.9 12.547c.7 2.742 1.3 5.483 1.9 8.33Z" fill="#FF6ED9"/><path d="M925.2 361.281c16.127 0 29.2-13.785 29.2-30.79 0-17.004-13.073-30.789-29.2-30.789S896 313.487 896 330.491c0 17.005 13.073 30.79 29.2 30.79Z" fill="#8C503E"/><path d="M1041.5 558.882s2.6 10.967 4.2 16.239c1.6 5.167 4.6 11.704 7 11.809 2.5.106 3.1-9.595 1.7-24.357-1.4-14.762-.2-16.766-8.3-16.66-3.6 0-5.5-.211-5.5-.211l.9 13.18ZM929.3 666.33s-10.4 2.319-16.1 4.639c-5.7 2.32-10.1 4.851-10.1 7.803 0 2.32 10.4 1.582 26.6 1.582 16.6.105 21.3.527 18.4-8.33-1-3.058-3.5-5.8-3.5-5.8h-15.3v.106Z" fill="#4E3734"/><path d="M871.1 289.79s-2.4-7.486-2.1-11.599c.3-4.112 1.5-10.439 1.7-13.813.2-3.374 0-10.228 2.8-10.439 2.8-.211 4.9 4.112 4.8 8.752-.1 4.64 5 15.289 2.7 20.772-2.3 5.483-3.4 7.803-3.4 7.803l-6.5-1.476Zm171 87.097s7.1-2.531 10-5.167c2.9-2.636 7-7.487 9.5-9.701 2.5-2.214 7.8-6.221 6.2-8.646-1.6-2.426-6.1-1.687-9.6 1.265-3.4 2.847-14.6 4.956-17.4 10.123-2.8 5.166-3.8 7.591-3.8 7.591l5.1 4.535Z" fill="#8C503E"/><path d="m865.3 287.892 16.5 4.007s-1.6 42.388-.3 48.188c1.8 7.592 31.8 32.687 31.8 32.687s32.5.317 43 4.534c10.5 4.218 21.5 11.915 31.5 12.654 10 .738 46.8-22.144 46.8-22.144l11.8 12.654s-10.5 14.656-17.8 21.932c-9.5 9.49-25 22.67-35.8 24.252-10.8 1.582-44.3-11.599-44.3-11.599s7.5 27.416 13.2 39.331c5.8 11.915 11.3 20.561 11.3 20.561s-25.9 16.344-47.8 20.878c-21.9 4.534-46.7 0-46.7 0s-6.8-19.296-1.5-50.613 9-39.014 9-39.014-26.3-37.644-30.5-53.038c-4.2-15.395 9.8-65.27 9.8-65.27Z" fill="#FF6ED9"/><path d="M934.8 399.241s4.8 7.697 8.2 10.86c3.3 3.058 5.6 4.956 5.6 4.956l5.1 17.293s-9.3-7.276-12.8-14.446c-3.7-7.275-6.1-18.663-6.1-18.663Zm-48.8 6.748s3.6-10.65 9.9-18.453c7.2-8.751 17.3-14.762 17.3-14.762l-3.3-2.741s-9.1 3.69-17.2 13.18c-7 8.225-9.9 18.347-9.9 18.347l3.2 4.429Z" fill="#FF5ED2"/><path d="M954.5 330.491c0-17.082-13.1-30.789-29.2-30.789-6.6 0-12.8 2.319-17.7 6.326 0 0-7.1 10.017 2.7 16.45 9.8 6.432 16.6 1.687 16.6 1.687s2.5 2.319 2.3 6.432c-.5 7.697-10.3 9.49-10.1 19.401.3 13.708 14.8 11.599 14.8 18.875 0 6.326-7.7 10.228-8.4 18.663-.7 8.647 3.2 15.079 9.2 16.45 19.6 4.534 25.8-19.508 26.8-26.256 1-6.748-1.4-19.823-5-32.582-1.1-4.112-2-14.657-2-14.657Z" fill="#fff"/><path d="m887.034 229.78-40.098 27.048 16.867 27.802 40.099-27.048-16.868-27.802Z" fill="#4F3D9D"/><path d="m883.1 228 3.6 1.687 13.1 27.521-35.8 25.623-19.7 5.061v-32.898L883.1 228Z" fill="#fff"/><path d="m883.3 261.637-40.1 27.099-.1-33.742 40-26.994.2 33.637Z" fill="#5441AF"/><path d="m883.1 228 3.8 1.898.2.633-4-1.582V228Z" fill="#4F3D9D"/><path d="m885.9 230.003 8.9 26.783-38.2 27.943 7.4-1.898 35.8-25.623-12.7-26.677-1.2-.528Z" fill="#F7F7F7"/><path d="m876.5 281.038.7-7.697 2.9-2.004.8 3.164-4.4 6.537Z" fill="#8C503E"/><path fill="#FFEFF0" d="m70.282 486.751-3.644 3.609L55 477.293l3.645-3.609z"/></g><path d="m750.4 260 28.68-42h7.14l-28.68 42h-7.14Zm3.66-19.32c-2.04 0-3.84-.46-5.4-1.38-1.56-.96-2.8-2.3-3.72-4.02-.88-1.76-1.32-3.82-1.32-6.18s.44-4.4 1.32-6.12c.92-1.72 2.16-3.06 3.72-4.02 1.56-.96 3.36-1.44 5.4-1.44 2.04 0 3.84.48 5.4 1.44 1.56.96 2.78 2.3 3.66 4.02.88 1.72 1.32 3.76 1.32 6.12 0 2.36-.44 4.42-1.32 6.18-.88 1.72-2.1 3.06-3.66 4.02-1.56.92-3.36 1.38-5.4 1.38Zm0-4.92c1.32 0 2.38-.54 3.18-1.62.8-1.12 1.2-2.8 1.2-5.04s-.4-3.9-1.2-4.98c-.8-1.12-1.86-1.68-3.18-1.68-1.28 0-2.34.56-3.18 1.68-.8 1.08-1.2 2.74-1.2 4.98 0 2.2.4 3.86 1.2 4.98.84 1.12 1.9 1.68 3.18 1.68Zm28.5 24.72c-2 0-3.8-.46-5.4-1.38-1.56-.96-2.78-2.3-3.66-4.02-.88-1.76-1.32-3.82-1.32-6.18s.44-4.4 1.32-6.12c.88-1.72 2.1-3.06 3.66-4.02 1.6-.96 3.4-1.44 5.4-1.44 2.08 0 3.9.48 5.46 1.44s2.78 2.3 3.66 4.02c.88 1.72 1.32 3.76 1.32 6.12 0 2.36-.44 4.42-1.32 6.18-.88 1.72-2.1 3.06-3.66 4.02-1.56.92-3.38 1.38-5.46 1.38Zm0-4.92c1.32 0 2.38-.54 3.18-1.62.8-1.12 1.2-2.8 1.2-5.04 0-2.2-.4-3.86-1.2-4.98-.8-1.12-1.86-1.68-3.18-1.68-1.28 0-2.34.56-3.18 1.68-.8 1.08-1.2 2.74-1.2 4.98s.4 3.92 1.2 5.04c.84 1.08 1.9 1.62 3.18 1.62Z" fill="#534FD2"/><path d="m745.4 255 28.68-42h7.14l-28.68 42h-7.14Zm3.66-19.32c-2.04 0-3.84-.46-5.4-1.38-1.56-.96-2.8-2.3-3.72-4.02-.88-1.76-1.32-3.82-1.32-6.18s.44-4.4 1.32-6.12c.92-1.72 2.16-3.06 3.72-4.02 1.56-.96 3.36-1.44 5.4-1.44 2.04 0 3.84.48 5.4 1.44 1.56.96 2.78 2.3 3.66 4.02.88 1.72 1.32 3.76 1.32 6.12 0 2.36-.44 4.42-1.32 6.18-.88 1.72-2.1 3.06-3.66 4.02-1.56.92-3.36 1.38-5.4 1.38Zm0-4.92c1.32 0 2.38-.54 3.18-1.62.8-1.12 1.2-2.8 1.2-5.04s-.4-3.9-1.2-4.98c-.8-1.12-1.86-1.68-3.18-1.68-1.28 0-2.34.56-3.18 1.68-.8 1.08-1.2 2.74-1.2 4.98 0 2.2.4 3.86 1.2 4.98.84 1.12 1.9 1.68 3.18 1.68Zm28.5 24.72c-2 0-3.8-.46-5.4-1.38-1.56-.96-2.78-2.3-3.66-4.02-.88-1.76-1.32-3.82-1.32-6.18s.44-4.4 1.32-6.12c.88-1.72 2.1-3.06 3.66-4.02 1.6-.96 3.4-1.44 5.4-1.44 2.08 0 3.9.48 5.46 1.44s2.78 2.3 3.66 4.02c.88 1.72 1.32 3.76 1.32 6.12 0 2.36-.44 4.42-1.32 6.18-.88 1.72-2.1 3.06-3.66 4.02-1.56.92-3.38 1.38-5.46 1.38Zm0-4.92c1.32 0 2.38-.54 3.18-1.62.8-1.12 1.2-2.8 1.2-5.04 0-2.2-.4-3.86-1.2-4.98-.8-1.12-1.86-1.68-3.18-1.68-1.28 0-2.34.56-3.18 1.68-.8 1.08-1.2 2.74-1.2 4.98s.4 3.92 1.2 5.04c.84 1.08 1.9 1.62 3.18 1.62Z" fill="#fff"/><path d="M563.438 182.554c7.765 0 14.985 1.699 21.658 5.096 6.673 3.397 12.012 8.19 16.016 14.378 4.004 6.188 6.006 13.286 6.006 21.294 0 8.857-2.305 16.683-6.916 23.478-4.489 6.795-10.677 12.012-18.564 15.652-7.887 3.64-16.623 5.46-26.208 5.46-12.255 0-22.993-2.366-32.214-7.098-9.1-4.732-16.198-11.769-21.294-21.112-5.096-9.343-7.644-20.809-7.644-34.398 0-14.56 2.912-27.179 8.736-37.856 5.945-10.677 14.196-18.807 24.752-24.388 10.677-5.581 23.053-8.372 37.128-8.372 7.644 0 14.924.91 21.84 2.73 6.916 1.699 12.801 4.125 17.654 7.28l-15.47 30.03c-6.309-4.489-14.014-6.734-23.114-6.734-7.401 0-13.529 1.881-18.382 5.642-4.732 3.64-7.826 8.979-9.282 16.016 6.673-4.732 15.106-7.098 25.298-7.098Zm-10.92 55.692c3.883 0 7.037-1.153 9.464-3.458 2.427-2.305 3.64-5.46 3.64-9.464 0-4.004-1.213-7.159-3.64-9.464-2.427-2.427-5.581-3.64-9.464-3.64s-7.037 1.213-9.464 3.64c-2.427 2.305-3.64 5.46-3.64 9.464 0 4.004 1.213 7.159 3.64 9.464 2.427 2.305 5.581 3.458 9.464 3.458Zm119.78 29.666c-11.284 0-21.294-2.609-30.03-7.826-8.614-5.339-15.409-12.983-20.384-22.932-4.853-10.071-7.28-22.022-7.28-35.854s2.427-25.723 7.28-35.672c4.975-10.071 11.77-17.715 20.384-22.932 8.736-5.339 18.746-8.008 30.03-8.008 11.284 0 21.234 2.669 29.848 8.008 8.736 5.217 15.531 12.861 20.384 22.932 4.975 9.949 7.462 21.84 7.462 35.672 0 13.832-2.487 25.783-7.462 35.854-4.853 9.949-11.648 17.593-20.384 22.932-8.614 5.217-18.564 7.826-29.848 7.826Zm0-34.398c9.707 0 14.56-10.738 14.56-32.214s-4.853-32.214-14.56-32.214c-9.706 0-14.56 10.738-14.56 32.214s4.854 32.214 14.56 32.214Z" fill="#534FD2"/><path d="M542.43 254.912c-12.133 0-22.811-2.305-32.032-6.916-9.1-4.732-16.259-11.709-21.476-20.93-5.096-9.343-7.644-20.93-7.644-34.762 0-14.924 2.973-27.603 8.918-38.038 5.945-10.556 14.196-18.625 24.752-24.206 10.677-5.581 22.993-8.372 36.946-8.372 7.523 0 14.742.91 21.658 2.73 7.037 1.699 12.983 4.125 17.836 7.28l-15.47 30.03c-3.761-2.669-7.583-4.429-11.466-5.278a46.41 46.41 0 0 0-11.648-1.456c-8.615 0-15.531 2.609-20.748 7.826-5.096 5.096-7.644 12.558-7.644 22.386v10.738l-9.828-7.098c2.427-4.125 5.278-7.583 8.554-10.374 3.276-2.912 7.159-5.096 11.648-6.552 4.489-1.577 9.707-2.366 15.652-2.366 7.765 0 14.924 1.699 21.476 5.096 6.673 3.276 12.012 7.947 16.016 14.014 4.125 6.067 6.188 13.286 6.188 21.658 0 9.1-2.305 16.987-6.916 23.66-4.611 6.673-10.859 11.83-18.746 15.47-7.765 3.64-16.441 5.46-26.026 5.46Zm-2.912-29.666c2.548 0 4.793-.485 6.734-1.456 2.063-1.092 3.64-2.609 4.732-4.55 1.092-1.941 1.638-4.247 1.638-6.916 0-4.004-1.213-7.159-3.64-9.464-2.427-2.427-5.581-3.64-9.464-3.64-2.548 0-4.793.546-6.734 1.638-1.941 1.092-3.519 2.609-4.732 4.55-1.092 1.941-1.638 4.247-1.638 6.916 0 2.669.546 4.975 1.638 6.916 1.213 1.941 2.791 3.458 4.732 4.55 1.941.971 4.186 1.456 6.734 1.456Zm119.78 29.666c-11.284 0-21.294-2.609-30.03-7.826-8.614-5.217-15.409-12.801-20.384-22.75-4.853-9.949-7.28-21.961-7.28-36.036 0-14.075 2.427-26.087 7.28-36.036 4.975-9.949 11.77-17.533 20.384-22.75 8.736-5.217 18.746-7.826 30.03-7.826 11.284 0 21.234 2.609 29.848 7.826 8.736 5.217 15.531 12.801 20.384 22.75 4.975 9.949 7.462 21.961 7.462 36.036 0 14.075-2.487 26.087-7.462 36.036-4.853 9.949-11.648 17.533-20.384 22.75-8.614 5.217-18.564 7.826-29.848 7.826Zm0-34.398c2.791 0 5.278-.971 7.462-2.912 2.184-1.941 3.883-5.278 5.096-10.01 1.335-4.732 2.002-11.163 2.002-19.292 0-8.251-.667-14.681-2.002-19.292-1.213-4.732-2.912-8.069-5.096-10.01-2.184-1.941-4.671-2.912-7.462-2.912-2.79 0-5.278.971-7.462 2.912-2.184 1.941-3.943 5.278-5.278 10.01-1.213 4.611-1.82 11.041-1.82 19.292 0 8.129.607 14.56 1.82 19.292 1.335 4.732 3.094 8.069 5.278 10.01 2.184 1.941 4.672 2.912 7.462 2.912Z" fill="#fff"/><path d="M330.94 167.48c-2.68 0-5.08-.52-7.2-1.56-2.08-1.04-3.7-2.62-4.86-4.74-1.16-2.16-1.74-4.9-1.74-8.22v-18.24h9.36v16.86c0 2.68.56 4.66 1.68 5.94 1.16 1.24 2.78 1.86 4.86 1.86 1.44 0 2.72-.3 3.84-.9 1.12-.64 2-1.6 2.64-2.88.64-1.32.96-2.96.96-4.92v-15.96h9.36V167h-8.88v-8.88l1.62 2.58c-1.08 2.24-2.68 3.94-4.8 5.1-2.08 1.12-4.36 1.68-6.84 1.68Zm46.651 0c-2.72 0-5.1-.6-7.14-1.8-2.04-1.2-3.64-3.02-4.8-5.46-1.12-2.48-1.68-5.6-1.68-9.36 0-3.8.54-6.92 1.62-9.36 1.08-2.44 2.64-4.26 4.68-5.46 2.04-1.2 4.48-1.8 7.32-1.8 3.04 0 5.76.7 8.16 2.1 2.44 1.36 4.36 3.28 5.76 5.76 1.44 2.48 2.16 5.4 2.16 8.76 0 3.4-.72 6.34-2.16 8.82-1.4 2.48-3.32 4.4-5.76 5.76-2.4 1.36-5.12 2.04-8.16 2.04Zm-19.08 11.16v-43.92h8.94v6.6l-.18 9.6.6 9.54v18.18h-9.36Zm17.46-18.84c1.56 0 2.94-.36 4.14-1.08 1.24-.72 2.22-1.74 2.94-3.06.76-1.36 1.14-2.96 1.14-4.8 0-1.88-.38-3.48-1.14-4.8-.72-1.32-1.7-2.34-2.94-3.06-1.2-.72-2.58-1.08-4.14-1.08-1.56 0-2.96.36-4.2 1.08-1.24.72-2.22 1.74-2.94 3.06-.72 1.32-1.08 2.92-1.08 4.8 0 1.84.36 3.44 1.08 4.8.72 1.32 1.7 2.34 2.94 3.06 1.24.72 2.64 1.08 4.2 1.08Zm54.158 7.68c-3.8 0-6.76-.96-8.88-2.88-2.12-1.96-3.18-4.86-3.18-8.7v-28.32h9.36v28.2c0 1.36.36 2.42 1.08 3.18.72.72 1.7 1.08 2.94 1.08 1.48 0 2.74-.4 3.78-1.2l2.52 6.6c-.96.68-2.12 1.2-3.48 1.56-1.32.32-2.7.48-4.14.48Zm-17.04-24.84v-7.2h22.38v7.2h-22.38Zm44.279 24.84c-3.44 0-6.5-.72-9.18-2.16-2.64-1.44-4.74-3.4-6.3-5.88-1.52-2.52-2.28-5.38-2.28-8.58 0-3.24.76-6.1 2.28-8.58 1.56-2.52 3.66-4.48 6.3-5.88 2.68-1.44 5.74-2.16 9.18-2.16 3.4 0 6.44.72 9.12 2.16 2.68 1.4 4.78 3.34 6.3 5.82 1.52 2.48 2.28 5.36 2.28 8.64 0 3.2-.76 6.06-2.28 8.58-1.52 2.48-3.62 4.44-6.3 5.88-2.68 1.44-5.72 2.16-9.12 2.16Zm0-7.68c1.56 0 2.96-.36 4.2-1.08 1.24-.72 2.22-1.74 2.94-3.06.72-1.36 1.08-2.96 1.08-4.8 0-1.88-.36-3.48-1.08-4.8-.72-1.32-1.7-2.34-2.94-3.06-1.24-.72-2.64-1.08-4.2-1.08s-2.96.36-4.2 1.08c-1.24.72-2.24 1.74-3 3.06-.72 1.32-1.08 2.92-1.08 4.8 0 1.84.36 3.44 1.08 4.8.76 1.32 1.76 2.34 3 3.06 1.24.72 2.64 1.08 4.2 1.08Z" fill="#534FD2"/><path d="M325.94 162.48c-2.68 0-5.08-.52-7.2-1.56-2.08-1.04-3.7-2.62-4.86-4.74-1.16-2.16-1.74-4.9-1.74-8.22v-18.24h9.36v16.86c0 2.68.56 4.66 1.68 5.94 1.16 1.24 2.78 1.86 4.86 1.86 1.44 0 2.72-.3 3.84-.9 1.12-.64 2-1.6 2.64-2.88.64-1.32.96-2.96.96-4.92v-15.96h9.36V162h-8.88v-8.88l1.62 2.58c-1.08 2.24-2.68 3.94-4.8 5.1-2.08 1.12-4.36 1.68-6.84 1.68Zm46.651 0c-2.72 0-5.1-.6-7.14-1.8-2.04-1.2-3.64-3.02-4.8-5.46-1.12-2.48-1.68-5.6-1.68-9.36 0-3.8.54-6.92 1.62-9.36 1.08-2.44 2.64-4.26 4.68-5.46 2.04-1.2 4.48-1.8 7.32-1.8 3.04 0 5.76.7 8.16 2.1 2.44 1.36 4.36 3.28 5.76 5.76 1.44 2.48 2.16 5.4 2.16 8.76 0 3.4-.72 6.34-2.16 8.82-1.4 2.48-3.32 4.4-5.76 5.76-2.4 1.36-5.12 2.04-8.16 2.04Zm-19.08 11.16v-43.92h8.94v6.6l-.18 9.6.6 9.54v18.18h-9.36Zm17.46-18.84c1.56 0 2.94-.36 4.14-1.08 1.24-.72 2.22-1.74 2.94-3.06.76-1.36 1.14-2.96 1.14-4.8 0-1.88-.38-3.48-1.14-4.8-.72-1.32-1.7-2.34-2.94-3.06-1.2-.72-2.58-1.08-4.14-1.08-1.56 0-2.96.36-4.2 1.08-1.24.72-2.22 1.74-2.94 3.06-.72 1.32-1.08 2.92-1.08 4.8 0 1.84.36 3.44 1.08 4.8.72 1.32 1.7 2.34 2.94 3.06 1.24.72 2.64 1.08 4.2 1.08Zm54.158 7.68c-3.8 0-6.76-.96-8.88-2.88-2.12-1.96-3.18-4.86-3.18-8.7v-28.32h9.36v28.2c0 1.36.36 2.42 1.08 3.18.72.72 1.7 1.08 2.94 1.08 1.48 0 2.74-.4 3.78-1.2l2.52 6.6c-.96.68-2.12 1.2-3.48 1.56-1.32.32-2.7.48-4.14.48Zm-17.04-24.84v-7.2h22.38v7.2h-22.38Zm44.279 24.84c-3.44 0-6.5-.72-9.18-2.16-2.64-1.44-4.74-3.4-6.3-5.88-1.52-2.52-2.28-5.38-2.28-8.58 0-3.24.76-6.1 2.28-8.58 1.56-2.52 3.66-4.48 6.3-5.88 2.68-1.44 5.74-2.16 9.18-2.16 3.4 0 6.44.72 9.12 2.16 2.68 1.4 4.78 3.34 6.3 5.82 1.52 2.48 2.28 5.36 2.28 8.64 0 3.2-.76 6.06-2.28 8.58-1.52 2.48-3.62 4.44-6.3 5.88-2.68 1.44-5.72 2.16-9.12 2.16Zm0-7.68c1.56 0 2.96-.36 4.2-1.08 1.24-.72 2.22-1.74 2.94-3.06.72-1.36 1.08-2.96 1.08-4.8 0-1.88-.36-3.48-1.08-4.8-.72-1.32-1.7-2.34-2.94-3.06-1.24-.72-2.64-1.08-4.2-1.08s-2.96.36-4.2 1.08c-1.24.72-2.24 1.74-3 3.06-.72 1.32-1.08 2.92-1.08 4.8 0 1.84.36 3.44 1.08 4.8.76 1.32 1.76 2.34 3 3.06 1.24.72 2.64 1.08 4.2 1.08Z" fill="#fff"/><path d="M429.525 93V75.5h8.2c2.1 0 3.7.417 4.8 1.25 1.1.817 1.65 1.917 1.65 3.3 0 .933-.216 1.733-.65 2.4a4.443 4.443 0 0 1-1.75 1.525 5.28 5.28 0 0 1-2.35.525l.45-.9c.984 0 1.867.183 2.65.55.784.35 1.4.867 1.85 1.55.467.683.7 1.533.7 2.55 0 1.5-.575 2.667-1.725 3.5-1.15.833-2.858 1.25-5.125 1.25h-8.7Zm3.25-2.55h5.25c1.217 0 2.15-.2 2.8-.6.65-.4.975-1.042.975-1.925 0-.867-.325-1.5-.975-1.9-.65-.417-1.583-.625-2.8-.625h-5.5v-2.525h4.85c1.134 0 2-.2 2.6-.6.617-.4.925-1 .925-1.8 0-.817-.308-1.425-.925-1.825-.6-.4-1.466-.6-2.6-.6h-4.6v12.4ZM448.544 93V75.5h3.25v14.75h9.15V93h-12.4Zm12.515 0 7.875-17.5h3.2l7.9 17.5h-3.4l-6.775-15.775h1.3L464.409 93h-3.35Zm3.625-4.05.875-2.55h9.45l.875 2.55h-11.2Zm25.432 4.3c-1.334 0-2.575-.217-3.725-.65a9.294 9.294 0 0 1-2.975-1.875 8.764 8.764 0 0 1-1.95-2.875c-.467-1.1-.7-2.3-.7-3.6 0-1.3.233-2.5.7-3.6a8.329 8.329 0 0 1 1.975-2.85 8.753 8.753 0 0 1 2.975-1.875c1.133-.45 2.375-.675 3.725-.675 1.433 0 2.741.25 3.925.75a7.664 7.664 0 0 1 3 2.175l-2.1 1.975c-.634-.683-1.342-1.192-2.125-1.525a6.183 6.183 0 0 0-2.55-.525c-.917 0-1.759.15-2.525.45-.75.3-1.409.725-1.975 1.275-.55.55-.984 1.2-1.3 1.95-.3.75-.45 1.575-.45 2.475 0 .9.15 1.725.45 2.475.316.75.75 1.4 1.3 1.95.566.55 1.225.975 1.975 1.275.766.3 1.608.45 2.525.45a6.45 6.45 0 0 0 2.55-.5c.783-.35 1.491-.875 2.125-1.575l2.1 2a8.01 8.01 0 0 1-3 2.175c-1.184.5-2.5.75-3.95.75Zm12.964-4.375-.175-3.85 9.175-9.525h3.65l-7.625 8.1-1.8 1.975-3.225 3.3ZM500.18 93V75.5h3.25V93h-3.25Zm12.2 0-6.7-7.975 2.15-2.375L516.18 93h-3.8Zm15.897-9.45h8.725v2.75h-8.725v-2.75Zm.275 9.45h-3.25V75.5h12.775v2.725h-9.525V93Zm12.668 0V75.5h7.2c1.55 0 2.875.25 3.975.75 1.116.5 1.975 1.217 2.575 2.15.6.933.9 2.042.9 3.325 0 1.283-.3 2.392-.9 3.325-.6.917-1.459 1.625-2.575 2.125-1.1.483-2.425.725-3.975.725h-5.4l1.45-1.475V93h-3.25Zm11.45 0-4.425-6.35h3.475l4.45 6.35h-3.5Zm-8.2-6.225-1.45-1.55h5.25c1.433 0 2.508-.308 3.225-.925.733-.617 1.1-1.475 1.1-2.575 0-1.117-.367-1.975-1.1-2.575-.717-.6-1.792-.9-3.225-.9h-5.25l1.45-1.6v10.125ZM559.506 93V75.5h3.25V93h-3.25Zm7.983 0V75.5h7.65c1.9 0 3.567.367 5 1.1 1.433.733 2.55 1.75 3.35 3.05.8 1.3 1.2 2.833 1.2 4.6 0 1.75-.4 3.283-1.2 4.6-.8 1.3-1.917 2.317-3.35 3.05-1.433.733-3.1 1.1-5 1.1h-7.65Zm3.25-2.75h4.25c1.317 0 2.45-.25 3.4-.75.967-.5 1.708-1.2 2.225-2.1.533-.9.8-1.95.8-3.15 0-1.217-.267-2.267-.8-3.15-.517-.9-1.258-1.6-2.225-2.1-.95-.5-2.083-.75-3.4-.75h-4.25v12ZM585.424 93l7.875-17.5h3.2l7.9 17.5h-3.4l-6.775-15.775h1.3L588.774 93h-3.35Zm3.625-4.05.875-2.55h9.45l.875 2.55h-11.2ZM609.875 93v-6.925l.725 2L603 75.5h3.475l6.1 10.125h-1.95l6.15-10.125h3.2l-7.6 12.575.75-2V93h-3.25Zm24.563.25c-1.367 0-2.675-.192-3.925-.575-1.25-.4-2.242-.908-2.975-1.525l1.125-2.525c.7.55 1.566 1.008 2.6 1.375a9.423 9.423 0 0 0 3.175.55c.916 0 1.658-.1 2.225-.3.566-.2.983-.467 1.25-.8.266-.35.4-.742.4-1.175 0-.533-.192-.958-.575-1.275-.384-.333-.884-.592-1.5-.775-.6-.2-1.275-.383-2.025-.55a39.648 39.648 0 0 1-2.225-.575 10.562 10.562 0 0 1-2.025-.875 4.537 4.537 0 0 1-1.475-1.45c-.384-.6-.575-1.367-.575-2.3 0-.95.25-1.817.75-2.6.516-.8 1.291-1.433 2.325-1.9 1.05-.483 2.375-.725 3.975-.725 1.05 0 2.091.133 3.125.4 1.033.267 1.933.65 2.7 1.15l-1.025 2.525a9.31 9.31 0 0 0-2.425-1.025 8.904 8.904 0 0 0-2.4-.35c-.9 0-1.634.108-2.2.325-.55.217-.959.5-1.225.85-.25.35-.375.75-.375 1.2 0 .533.183.967.55 1.3.383.317.875.567 1.475.75.616.183 1.3.367 2.05.55.75.167 1.491.358 2.225.575.75.217 1.425.5 2.025.85a4.04 4.04 0 0 1 1.475 1.425c.383.6.575 1.358.575 2.275 0 .933-.259 1.8-.775 2.6-.5.783-1.275 1.417-2.325 1.9-1.05.467-2.375.7-3.975.7Zm7.822-.25 7.875-17.5h3.2l7.9 17.5h-3.4l-6.775-15.775h1.3L645.61 93h-3.35Zm3.625-4.05.875-2.55h9.45l.875 2.55h-11.2ZM663.461 93V75.5h3.25v14.75h9.15V93h-12.4Zm17.966-10.225h8.7v2.675h-8.7v-2.675Zm.25 7.5h9.875V93h-13.125V75.5h12.775v2.725h-9.525v12.05Z" fill="#1C2A39"/><defs><clipPath id="a"><path fill="#fff" transform="translate(52 228)" d="M0 0h1016.1v452.459H0z"/></clipPath></defs></svg>